PathFileType	4	(X/Y/Z)	C:\Users\adpatrick\OneDrive - nih.no\Desktop\WebApp1080sync\WebAppv0.1\fp22_m505_left 2_Sports2D\fp22_m505_left 2_Sports2D_px_person00.trc
DataRate	CameraRate	NumFrames	NumMarkers	Units	OrigDataRate	OrigDataStartFrame	OrigNumFrames
60	60	6	22	m	60	651	869
Frame#	Time	Hip			RHip			RKnee			RAnkle			RBigToe			RSmallToe			RHeel			LHip			LKnee			LAnkle			LBigToe			LSmallToe			LHeel			Neck			Head			Nose			RShoulder			RElbow			RWrist			LShoulder			LElbow			LWrist		
		X1	Y1	Z1	X2	Y2	Z2	X3	Y3	Z3	X4	Y4	Z4	X5	Y5	Z5	X6	Y6	Z6	X7	Y7	Z7	X8	Y8	Z8	X9	Y9	Z9	X10	Y10	Z10	X11	Y11	Z11	X12	Y12	Z12	X13	Y13	Z13	X14	Y14	Z14	X15	Y15	Z15	X16	Y16	Z16	X17	Y17	Z17	X18	Y18	Z18	X19	Y19	Z19	X20	Y20	Z20	X21	Y21	Z21	X22	Y22	Z22
651	10.85	224.12078399142857	571.5131350939865	0.0	234.84132212994058	567.2641200606967	0.0	211.35434959244867	678.7960747769703	0.0	335.6376710534054	728.664157577234	0.0	222.22197972619512	762.8672789046282	0.0	343.01433967659705	758.019468681405	0.0	352.4817422285964	729.3012977978947	0.0	216.56206006552273	567.5919829761568	0.0	143.73297952136616	661.3661277819612	0.0	237.79232044730279	756.1398208685034	0.0	104.09287861200299	772.0476181925709	0.0	126.86751414881282	764.7482975186049	0.0	258.3927991030453	761.7846917968014	0.0	210.64352756545836	416.6029612348585	0.0	193.54170001198293	344.6068386502367	0.0	178.36216640983923	384.0201994490632	0.0	230.44028913085984	431.1855101671468	0.0	218.34947287991508	501.13127382264025	0.0	159.0901113253708	510.48065505385495	0.0	207.17364345726992	431.58164949208975	0.0	233.28296363418056	490.15650881121695	0.0	207.77175354740604	565.0090386696361	0.0
652	10.866666666666667	201.9860577995269	572.3283611360212	0.0	215.25238632031153	567.7194144456428	0.0	195.8431350119587	684.7474964627639	0.0	324.48718152252246	714.6146466300199	0.0	247.81049207638455	749.1311345689278	0.0	340.6023244363042	745.5756777217127	0.0	340.41503991862425	709.5320622757207	0.0	189.65155847119203	567.9018593855317	0.0	111.47963369257789	662.0268102895111	0.0	165.13160782372006	761.1771375031273	0.0	60.01783237133656	769.2364958120835	0.0	89.48509812239583	757.1030714629748	0.0	183.86316433891753	758.5232129858409	0.0	190.2392084153677	417.8001579674198	0.0	172.07323563135992	347.360027123641	0.0	156.82330794280125	385.35944359275777	0.0	210.01538461574802	432.683898523197	0.0	207.95473384659337	504.2123868169966	0.0	144.76131873615006	523.8983661727723	0.0	184.61308916413816	433.00463737304864	0.0	208.4442096192195	496.57191396192763	0.0	177.2063314336156	570.2438401427942	0.0
653	10.883333333333333	180.41217793140595	574.047998850351	0.0	196.97625458672374	569.7564029810649	0.0	183.56841369828365	691.2829176308956	0.0	309.86152289657326	702.6906985105932	0.0	275.82935369337974	737.7195270771523	0.0	333.7381311398135	735.5498338168857	0.0	325.0258372986049	693.0437616564874	0.0	162.81247603901244	569.793841521007	0.0	79.67371476354319	664.0235244214122	0.0	94.98083467531725	766.7282511702052	0.0	29.247735487064304	769.178086774368	0.0	65.26574874714339	751.5764163701854	0.0	112.0781815643281	751.3890393625769	0.0	169.61853295352535	419.9327552244659	0.0	150.77979474178224	350.12501899332887	0.0	135.13653784881134	387.3270920048916	0.0	190.62898954085446	435.5134823395291	0.0	198.60928676966915	508.97280784761347	0.0	132.47345456887422	541.4709279581916	0.0	160.48664132170754	435.6768476881881	0.0	180.91919307290314	504.1714381331949	0.0	143.7712388332264	576.8641494420542	0.0
654	10.9	158.76093582629943	576.5994335128122	0.0	178.39921318466259	573.4464300030634	0.0	166.71692805139733	696.4583565528587	0.0	287.3393889042282	695.1397827826761	0.0	287.8260807957251	730.6683815365868	0.0	316.0449479176413	729.1604892741663	0.0	302.25315893728094	682.9718075681665	0.0	136.84772538857885	573.3183232261655	0.0	51.406682912353304	667.5607158914894	0.0	43.73521069172254	770.580863936191	0.0	17.94998468728472	770.4570619212567	0.0	56.66834845324341	748.3226885908056	0.0	60.02769869787235	739.2155588861673	0.0	148.42532134590292	423.0297409174849	0.0	129.54413190722045	352.70186933404267	0.0	113.22633560164037	389.94177966645725	0.0	171.7078211639765	439.5432259067758	0.0	187.63251207256516	514.625771451065	0.0	121.67429282910508	558.455428615945	0.0	135.10123881318927	439.62553297410807	0.0	150.92103120949417	512.25371655354	0.0	108.67334326685544	583.7676803666552	0.0
655	10.916666666666666	136.69536207295243	579.6597977180442	0.0	158.79736980619248	578.2227807760828	0.0	142.4577652189049	698.9292381334267	0.0	256.4660300820153	693.0997199751389	0.0	277.2154281452813	729.1058178687286	0.0	286.432291990397	727.3327748971371	0.0	271.8676812538204	680.5481113830517	0.0	112.113260693911	577.8997154627481	0.0	27.849167619977045	671.7747104694247	0.0	17.02571526937214	770.9594515562692	0.0	24.78020618505369	770.7180921155823	0.0	59.10249715262381	747.1405942174634	0.0	33.26306187022424	724.3518255016537	0.0	126.47170403336612	426.88409732090355	0.0	108.06895303833777	355.13577850876476	0.0	91.05178279050257	393.14073299043594	0.0	152.84903074247325	444.5034422000555	0.0	174.1720599248433	520.4642005642844	0.0	112.33985015329894	571.1933342623399	0.0	108.66343703818676	444.6709529542577	0.0	118.9745325139725	520.2187698219734	0.0	73.9082968861525	589.4180990244051	0.0
656	10.933333333333334	114.28745865353918	582.7076309852501	0.0	138.16718099125453	583.1891160503766	0.0	112.1203375944199	697.9943671986125	0.0	218.59502900437008	696.5963355004402	0.0	246.00005561314654	732.729435268581	0.0	246.31670675702128	730.2704085833918	0.0	234.9801658108919	685.35867944044	0.0	88.8110638363392	582.6455122812977	0.0	9.329768169189537	675.516846425202	0.0	11.98840069445717	767.1607401719687	0.0	42.54928998928538	768.8127052662308	0.0	65.61705647599817	747.8580470225961	0.0	28.716155103138025	711.6626702934097	0.0	103.8386889287951	431.07195758195394	0.0	86.19713787702642	357.7384045512463	0.0	68.80322817040042	396.782544391243	0.0	133.89738818813947	449.965034211569	0.0	158.5251579886144	526.0513211115468	0.0	103.81028693613258	578.3222448852466	0.0	81.6271980358543	450.3324968310711	0.0	86.30517118438136	527.5859332678275	0.0	42.580353406580286	591.9761062694666	0.0
